{"title":"Righteous_Kill.Swe_Sub.avi","uid":5251584,"size":734439424,"categoryP":"video","categoryS":"movies","magnet":"?xt=urn:btih:ac668505670617d331e2141e903ef2bb24ad2d30&amp;dn=Righteous_Kill.Swe_Sub.avi&amp;tr=udp%3A%2F%2Ftracker.openbittorrent.com%3A80&amp;tr=udp%3A%2F%2Fopen.demonii.com%3A1337&amp;tr=udp%3A%2F%2Ftracker.coppersurfer.tk%3A6969&amp;tr=udp%3A%2F%2Fexodus.desync.com%3A6969","seeders":0,"leechers":1,"uploader":"Zen_Bud","files":-1,"time":1262378777,"description":"General\nComplete name                    : Righteous Kill.Swe_sub.avi\nFormat                           : AVI\nFormat/Info                      : Audio Video Interleave\nFile size                        : 700 MiB\nDuration                         : 1h 36mn\nOverall bit rate                 : 1 012 Kbps\n2178/release\n\nVideo\nCodec ID                         : XVID\nCodec ID/Hint                    : XviD\nDuration                         : 1h 36mn\nBit rate                         : 886 Kbps\nWidth                            : 608 pixels\nHeight                           : 352 pixels\nDisplay aspect ratio             : 16:9\nFrame rate                       : 25.000 fps\nResolution                       : 8 bits\nColorimetry                      : 4:2:0\nScan type                        : Progressive\nBits/(Pixel*Frame)               : 0.166\nStream size                      : 613 MiB (88%)\nWriting library                  : XviD 1.3.0.dev55\n\nAudio\nID                               : 1\nFormat                           : MPEG Audio\nFormat version                   : Version 1\nFormat profile                   : Layer 3\nMode                             : Joint stereo / MS Stereo\nCodec ID                         : 55\nCodec ID/Hint                    : MP3\nDuration                         : 1h 36mn\nBit rate mode                    : Variable\nBit rate                         : 114 Kbps\nNominal bit rate                 : 128 Kbps\nChannel(s)                       : 2 channels\nSampling rate                    : 48.0 KHz\nStream size                      : 78.6 MiB (11%)\n\nLanguage                         : English\n\n","torrent":{"xt":"urn:btih:ac668505670617d331e2141e903ef2bb24ad2d30","amp;dn":"Righteous_Kill.Swe_Sub.avi","amp;tr":["udp%3A%2F%2Ftracker.openbittorrent.com%3A80","udp%3A%2F%2Fopen.demonii.com%3A1337","udp%3A%2F%2Ftracker.coppersurfer.tk%3A6969","udp%3A%2F%2Fexodus.desync.com%3A6969"],"infoHash":"ac668505670617d331e2141e903ef2bb24ad2d30","infoHashBuffer":{"type":"Buffer","data":[172,102,133,5,103,6,23,211,49,226,20,30,144,62,242,187,36,173,45,48]},"announce":[],"urlList":[]}}